<svg width="1395" height="491" viewBox="0 0 1395 491" fill="none" xmlns="http://www.w3.org/2000/svg">
<rect x="1252.94" width="142.06" height="142.06" rx="10" fill="#1A8CF1" fill-opacity="0.08"/>
<rect x="1253.44" y="0.5" width="141.06" height="141.06" rx="9.5" stroke="#04B2E4" stroke-opacity="0.5"/>
<rect x="0.732422" y="20.2588" width="141.06" height="141.06" rx="9.5" stroke="#04B2E4" stroke-opacity="0.5"/>
<rect y="348.145" width="142.06" height="142.06" rx="10" fill="#1A8CF1" fill-opacity="0.08"/>
<rect x="0.5" y="348.645" width="141.06" height="141.06" rx="9.5" stroke="#04B2E4" stroke-opacity="0.5"/>
<rect x="156.473" y="348.145" width="142.06" height="142.06" rx="10" fill="#1A8CF1" fill-opacity="0.08"/>
<rect x="156.973" y="348.645" width="141.06" height="141.06" rx="9.5" stroke="#04B2E4" stroke-opacity="0.5"/>
<rect x="313.443" y="348.645" width="141.06" height="141.06" rx="9.5" stroke="#04B2E4" stroke-opacity="0.5"/>
<rect x="312.943" y="182.408" width="142.06" height="142.06" rx="10" fill="#1A8CF1" fill-opacity="0.08"/>
<rect x="313.443" y="182.908" width="141.06" height="141.06" rx="9.5" stroke="#04B2E4" stroke-opacity="0.5"/>
<rect x="312.943" y="19.7588" width="142.06" height="142.06" rx="10" fill="#1A8CF1" fill-opacity="0.08"/>
<rect x="313.443" y="20.2588" width="141.06" height="141.06" rx="9.5" stroke="#04B2E4" stroke-opacity="0.5"/>
<rect x="469.416" y="348.145" width="142.06" height="142.06" rx="10" fill="#1A8CF1" fill-opacity="0.08"/>
<rect x="469.916" y="348.645" width="141.06" height="141.06" rx="9.5" stroke="#04B2E4" stroke-opacity="0.5"/>
<rect x="469.416" y="182.408" width="142.06" height="142.06" rx="10" fill="#1A8CF1" fill-opacity="0.08"/>
<rect x="469.916" y="182.908" width="141.06" height="141.06" rx="9.5" stroke="#04B2E4" stroke-opacity="0.5"/>
<rect x="469.916" y="20.2588" width="141.06" height="141.06" rx="9.5" stroke="#04B2E4" stroke-opacity="0.5"/>
<rect x="625.889" y="348.145" width="142.06" height="142.06" rx="10" fill="#1A8CF1" fill-opacity="0.08"/>
<rect x="626.389" y="348.645" width="141.06" height="141.06" rx="9.5" stroke="#04B2E4" stroke-opacity="0.5"/>
<rect x="625.889" y="182.408" width="142.06" height="142.06" rx="10" fill="#1A8CF1" fill-opacity="0.08"/>
<rect x="626.389" y="182.908" width="141.06" height="141.06" rx="9.5" stroke="#04B2E4" stroke-opacity="0.5"/>
<rect x="625.889" y="19.7588" width="142.06" height="142.06" rx="10" fill="#1A8CF1" fill-opacity="0.08"/>
<rect x="626.389" y="20.2588" width="141.06" height="141.06" rx="9.5" stroke="#04B2E4" stroke-opacity="0.5"/>
<rect x="782.361" y="348.145" width="142.06" height="142.06" rx="10" fill="#1A8CF1" fill-opacity="0.08"/>
<rect x="782.861" y="348.645" width="141.06" height="141.06" rx="9.5" stroke="#04B2E4" stroke-opacity="0.5"/>
<rect x="782.361" y="182.408" width="142.06" height="142.06" rx="10" fill="#1A8CF1" fill-opacity="0.08"/>
<rect x="782.861" y="182.908" width="141.06" height="141.06" rx="9.5" stroke="#04B2E4" stroke-opacity="0.5"/>
<rect x="782.361" y="19.7588" width="142.06" height="142.06" rx="10" fill="#1A8CF1" fill-opacity="0.08"/>
<rect x="782.861" y="20.2588" width="141.06" height="141.06" rx="9.5" stroke="#04B2E4" stroke-opacity="0.5"/>
<rect x="938.834" y="348.145" width="142.06" height="142.06" rx="10" fill="#1A8CF1" fill-opacity="0.08"/>
<rect x="939.334" y="348.645" width="141.06" height="141.06" rx="9.5" stroke="#04B2E4" stroke-opacity="0.5"/>
<rect x="939.334" y="182.908" width="141.06" height="141.06" rx="9.5" stroke="#04B2E4" stroke-opacity="0.5"/>
<rect x="1095.8" y="348.645" width="141.06" height="141.06" rx="9.5" stroke="#04B2E4" stroke-opacity="0.5"/>
<rect x="1095.3" y="182.408" width="142.06" height="142.06" rx="10" fill="#1A8CF1" fill-opacity="0.08"/>
<rect x="1095.8" y="182.908" width="141.06" height="141.06" rx="9.5" stroke="#04B2E4" stroke-opacity="0.5"/>
<rect x="1251.78" y="348.145" width="142.06" height="142.06" rx="10" fill="#1A8CF1" fill-opacity="0.08"/>
<rect x="1252.28" y="348.645" width="141.06" height="141.06" rx="9.5" stroke="#04B2E4" stroke-opacity="0.5"/>
</svg>
